<svg width="188" height="18" viewBox="0 0 188 18" fill="none" xmlns="http://www.w3.org/2000/svg">
<path d="M37.2142 15.0335C36.8467 15.0335 36.571 14.977 36.3873 14.8639C36.2035 14.7508 36.0834 14.5953 36.0268 14.3974C35.9844 14.1995 35.9632 13.9804 35.9632 13.7401V1.50547C35.9632 1.2793 35.9844 1.07433 36.0268 0.890562C36.0834 0.692659 36.2035 0.537165 36.3873 0.424078C36.571 0.296855 36.8608 0.233243 37.2566 0.233243C37.5535 0.233243 37.7726 0.254447 37.914 0.296854C38.0694 0.325126 38.1896 0.374602 38.2744 0.445282C38.3592 0.501825 38.444 0.579573 38.5289 0.678524L43.7026 7.90904H43.2149L48.4099 0.65732C48.5088 0.544232 48.6078 0.459417 48.7067 0.402873C48.8057 0.346329 48.9329 0.303922 49.0884 0.27565C49.2439 0.247379 49.4489 0.233243 49.7033 0.233243C50.085 0.233243 50.3677 0.296855 50.5515 0.424078C50.7352 0.537165 50.8483 0.692659 50.8907 0.890562C50.9473 1.08846 50.9755 1.30757 50.9755 1.54788V13.7825C50.9755 13.9945 50.9473 14.1995 50.8907 14.3974C50.8483 14.5953 50.7352 14.7508 50.5515 14.8639C50.3677 14.977 50.0779 15.0335 49.6821 15.0335C49.3004 15.0335 49.0177 14.9699 48.8339 14.8427C48.6502 14.7296 48.53 14.5741 48.4735 14.3762C48.4311 14.1783 48.4099 13.9663 48.4099 13.7401V4.64365L44.5508 10.2203C44.5084 10.2768 44.4447 10.3546 44.3599 10.4535C44.2751 10.5383 44.162 10.6161 44.0207 10.6867C43.8793 10.7574 43.6885 10.7928 43.4482 10.7928C43.222 10.7928 43.0382 10.7574 42.8969 10.6867C42.7555 10.6161 42.6424 10.5383 42.5576 10.4535C42.4869 10.3687 42.4162 10.2839 42.3456 10.1991L38.5077 4.64365V13.7825C38.5077 13.9945 38.4794 14.1995 38.4228 14.3974C38.3804 14.5953 38.2673 14.7508 38.0836 14.8639C37.8998 14.977 37.61 15.0335 37.2142 15.0335Z" fill="#212121"/>
<path d="M56.3679 15.0335C55.9721 15.0335 55.6823 14.977 55.4986 14.8639C55.3148 14.7508 55.2017 14.5953 55.1593 14.3974C55.1169 14.1854 55.0957 13.9663 55.0957 13.7401V1.50547C55.0957 1.2793 55.1169 1.07433 55.1593 0.890562C55.2159 0.692659 55.336 0.537165 55.5198 0.424078C55.7035 0.296855 55.9933 0.233243 56.3891 0.233243H60.8844C61.5063 0.233243 62.1142 0.339262 62.7079 0.551301C63.3016 0.763339 63.8317 1.0814 64.2982 1.50547C64.7788 1.92955 65.1534 2.45258 65.422 3.07456C65.7047 3.69654 65.8461 4.42454 65.8461 5.25856C65.8461 6.07844 65.7047 6.79937 65.422 7.42135C65.1534 8.02919 64.7788 8.54516 64.2982 8.96923C63.8176 9.39331 63.2804 9.71137 62.6867 9.92341C62.1071 10.1354 61.4993 10.2415 60.8632 10.2415H57.6614V13.7613C57.6614 13.9875 57.6331 14.1995 57.5766 14.3974C57.5341 14.5953 57.4211 14.7508 57.2373 14.8639C57.0677 14.977 56.7779 15.0335 56.3679 15.0335ZM57.6614 7.65459H60.8844C61.3226 7.65459 61.7184 7.56978 62.0718 7.40015C62.4393 7.21638 62.7362 6.9478 62.9623 6.5944C63.1885 6.22687 63.3016 5.76745 63.3016 5.21615C63.3016 4.72139 63.1956 4.29732 62.9835 3.94392C62.7856 3.57639 62.5029 3.29367 62.1354 3.09576C61.782 2.89786 61.3579 2.79891 60.8632 2.79891H57.6614V7.65459Z" fill="#212121"/>
<path d="M81.0413 13.2524C81.1826 13.521 81.2533 13.7613 81.2533 13.9733C81.2675 14.1712 81.2109 14.3479 81.0837 14.5034C80.9565 14.6448 80.7444 14.7932 80.4476 14.9487C79.9952 15.1608 79.6418 15.2173 79.3874 15.1184C79.1471 15.0194 78.9209 14.7438 78.7089 14.2914L73.9804 4.30438L69.2731 14.2914C69.0611 14.7296 68.8279 14.9911 68.5734 15.0759C68.319 15.1749 67.9656 15.1254 67.5132 14.9275C67.2305 14.7862 67.0185 14.6377 66.8771 14.4822C66.7499 14.3267 66.6933 14.143 66.7075 13.9309C66.7357 13.7048 66.8276 13.4362 66.9831 13.1252L72.8142 0.975378C72.9273 0.749204 73.0898 0.572505 73.3019 0.445282C73.528 0.303923 73.7613 0.233243 74.0016 0.233243C74.1712 0.233243 74.3267 0.261515 74.4681 0.318058C74.6094 0.374601 74.7367 0.459417 74.8498 0.572504C74.977 0.685592 75.083 0.826951 75.1678 0.996581L81.0413 13.2524ZM70.2061 11.1956L71.2239 9.01164H76.7581L77.7759 11.1956H70.2061Z" fill="#212121"/>
<path d="M88.9091 15.2456C88.273 15.2456 87.6934 15.1678 87.1703 15.0123C86.6615 14.8568 86.2091 14.6589 85.8133 14.4186C85.4316 14.1783 85.1065 13.9309 84.8379 13.6765C84.5693 13.422 84.3714 13.1888 84.2442 12.9768C84.0605 12.7223 83.9403 12.4961 83.8838 12.2982C83.8272 12.1003 83.8413 11.9095 83.9262 11.7257C84.0251 11.5278 84.2018 11.3229 84.4563 11.1108C84.7107 10.8846 84.9439 10.7716 85.156 10.7716C85.3822 10.7574 85.5942 10.821 85.7921 10.9624C86.0041 11.1038 86.2091 11.3017 86.407 11.5561C86.7463 12.0085 87.1279 12.3336 87.552 12.5315C87.9761 12.7152 88.4002 12.8071 88.8243 12.8071C89.3756 12.8071 89.8562 12.7365 90.2661 12.5951C90.6761 12.4396 90.9941 12.2134 91.2203 11.9166C91.4606 11.6197 91.5808 11.238 91.5808 10.7716C91.5808 10.3899 91.4606 10.0789 91.2203 9.83859C90.9941 9.58414 90.6902 9.37211 90.3085 9.20248C89.9269 9.01871 89.4957 8.85615 89.0151 8.71479C88.5486 8.55929 88.0751 8.38966 87.5944 8.20589C87.2552 8.09281 86.9159 7.95852 86.5766 7.80302C86.2374 7.63339 85.9193 7.44255 85.6225 7.23052C85.3398 7.01848 85.0853 6.7711 84.8591 6.48838C84.6471 6.19153 84.4775 5.85227 84.3502 5.4706C84.223 5.08893 84.1594 4.64365 84.1594 4.13475C84.1594 3.32901 84.3573 2.62221 84.7531 2.01437C85.1489 1.39239 85.7002 0.904698 86.407 0.551301C87.1138 0.183767 87.9196 0 88.8243 0C89.4038 0 89.9198 0.0565437 90.3721 0.169631C90.8386 0.268582 91.2344 0.402873 91.5596 0.572504C91.8988 0.727999 92.1745 0.890562 92.3865 1.06019C92.6127 1.21569 92.7752 1.34998 92.8742 1.46307C93.1993 1.78819 93.376 2.06384 93.4043 2.29002C93.4467 2.50206 93.3195 2.79184 93.0226 3.15938C92.7258 3.54104 92.436 3.75308 92.1533 3.79549C91.8847 3.82376 91.5808 3.71068 91.2415 3.45623C91.0153 3.21592 90.7891 3.02508 90.563 2.88373C90.3368 2.72823 90.0823 2.61514 89.7996 2.54446C89.531 2.47378 89.1989 2.43844 88.8031 2.43844C88.5203 2.43844 88.2447 2.48085 87.9761 2.56567C87.7217 2.63635 87.5025 2.74943 87.3188 2.90493C87.135 3.04629 86.9866 3.22299 86.8735 3.43503C86.7745 3.64706 86.7251 3.88737 86.7251 4.15596C86.7251 4.52349 86.824 4.82741 87.0219 5.06772C87.234 5.2939 87.5167 5.48473 87.8701 5.64023C88.2235 5.78159 88.6193 5.91588 89.0575 6.0431C89.4957 6.17032 89.941 6.30461 90.3933 6.44597C90.8598 6.60147 91.3192 6.78524 91.7716 6.99727C92.2239 7.20931 92.6268 7.47789 92.9802 7.80302C93.3336 8.11401 93.6163 8.50982 93.8284 8.99044C94.0404 9.45692 94.1464 10.0294 94.1464 10.7079C94.1464 11.4854 93.998 12.1639 93.7011 12.7435C93.4043 13.3231 93.0014 13.7966 92.4925 14.1642C91.9836 14.5317 91.4182 14.8003 90.7962 14.9699C90.1742 15.1537 89.5452 15.2456 88.9091 15.2456Z" fill="#212121"/>
<path d="M102.263 15.2456C101.627 15.2456 101.048 15.1678 100.525 15.0123C100.016 14.8568 99.5634 14.6589 99.1676 14.4186C98.7859 14.1783 98.4608 13.9309 98.1922 13.6765C97.9236 13.422 97.7257 13.1888 97.5985 12.9768C97.4147 12.7223 97.2946 12.4961 97.238 12.2982C97.1815 12.1003 97.1956 11.9095 97.2805 11.7257C97.3794 11.5278 97.5561 11.3229 97.8106 11.1108C98.065 10.8846 98.2982 10.7716 98.5103 10.7716C98.7365 10.7574 98.9485 10.821 99.1464 10.9624C99.3584 11.1038 99.5634 11.3017 99.7613 11.5561C100.101 12.0085 100.482 12.3336 100.906 12.5315C101.33 12.7152 101.754 12.8071 102.179 12.8071C102.73 12.8071 103.21 12.7365 103.62 12.5951C104.03 12.4396 104.348 12.2134 104.575 11.9166C104.815 11.6197 104.935 11.238 104.935 10.7716C104.935 10.3899 104.815 10.0789 104.575 9.83859C104.348 9.58414 104.044 9.37211 103.663 9.20248C103.281 9.01871 102.85 8.85615 102.369 8.71479C101.903 8.55929 101.429 8.38966 100.949 8.20589C100.609 8.09281 100.27 7.95852 99.9309 7.80302C99.5917 7.63339 99.2736 7.44255 98.9768 7.23052C98.694 7.01848 98.4396 6.7711 98.2134 6.48838C98.0014 6.19153 97.8318 5.85227 97.7045 5.4706C97.5773 5.08893 97.5137 4.64365 97.5137 4.13475C97.5137 3.32901 97.7116 2.62221 98.1074 2.01437C98.5032 1.39239 99.0545 0.904698 99.7613 0.551301C100.468 0.183767 101.274 0 102.179 0C102.758 0 103.274 0.0565437 103.726 0.169631C104.193 0.268582 104.589 0.402873 104.914 0.572504C105.253 0.727999 105.529 0.890562 105.741 1.06019C105.967 1.21569 106.13 1.34998 106.228 1.46307C106.554 1.78819 106.73 2.06384 106.759 2.29002C106.801 2.50206 106.674 2.79184 106.377 3.15938C106.08 3.54104 105.79 3.75308 105.508 3.79549C105.239 3.82376 104.935 3.71068 104.596 3.45623C104.37 3.21592 104.143 3.02508 103.917 2.88373C103.691 2.72823 103.437 2.61514 103.154 2.54446C102.885 2.47378 102.553 2.43844 102.157 2.43844C101.875 2.43844 101.599 2.48085 101.33 2.56567C101.076 2.63635 100.857 2.74943 100.673 2.90493C100.489 3.04629 100.341 3.22299 100.228 3.43503C100.129 3.64706 100.079 3.88737 100.079 4.15596C100.079 4.52349 100.178 4.82741 100.376 5.06772C100.588 5.2939 100.871 5.48473 101.224 5.64023C101.578 5.78159 101.974 5.91588 102.412 6.0431C102.85 6.17032 103.295 6.30461 103.748 6.44597C104.214 6.60147 104.674 6.78524 105.126 6.99727C105.578 7.20931 105.981 7.47789 106.335 7.80302C106.688 8.11401 106.971 8.50982 107.183 8.99044C107.395 9.45692 107.501 10.0294 107.501 10.7079C107.501 11.4854 107.352 12.1639 107.055 12.7435C106.759 13.3231 106.356 13.7966 105.847 14.1642C105.338 14.5317 104.772 14.8003 104.151 14.9699C103.529 15.1537 102.899 15.2456 102.263 15.2456Z" fill="#212121"/>
<path d="M112.246 15.0547C111.85 15.0547 111.561 14.9911 111.377 14.8639C111.193 14.7508 111.08 14.5953 111.038 14.3974C110.995 14.1995 110.974 13.9804 110.974 13.7401V1.50547C110.974 1.2793 110.995 1.06726 111.038 0.869358C111.094 0.671456 111.207 0.515961 111.377 0.402873C111.561 0.289787 111.857 0.233243 112.267 0.233243C112.663 0.233243 112.946 0.289787 113.116 0.402873C113.299 0.515961 113.412 0.671456 113.455 0.869358C113.511 1.06726 113.54 1.28637 113.54 1.52668V13.7613C113.54 14.0016 113.511 14.2207 113.455 14.4186C113.412 14.6024 113.299 14.7508 113.116 14.8639C112.932 14.9911 112.642 15.0547 112.246 15.0547Z" fill="#212121"/>
<path d="M122.056 15.2456C121.42 15.2456 120.84 15.1678 120.317 15.0123C119.808 14.8568 119.356 14.6589 118.96 14.4186C118.578 14.1783 118.253 13.9309 117.985 13.6765C117.716 13.422 117.518 13.1888 117.391 12.9768C117.207 12.7223 117.087 12.4961 117.031 12.2982C116.974 12.1003 116.988 11.9095 117.073 11.7257C117.172 11.5278 117.349 11.3229 117.603 11.1108C117.857 10.8846 118.091 10.7716 118.303 10.7716C118.529 10.7574 118.741 10.821 118.939 10.9624C119.151 11.1038 119.356 11.3017 119.554 11.5561C119.893 12.0085 120.275 12.3336 120.699 12.5315C121.123 12.7152 121.547 12.8071 121.971 12.8071C122.522 12.8071 123.003 12.7365 123.413 12.5951C123.823 12.4396 124.141 12.2134 124.367 11.9166C124.607 11.6197 124.728 11.238 124.728 10.7716C124.728 10.3899 124.607 10.0789 124.367 9.83859C124.141 9.58414 123.837 9.37211 123.455 9.20248C123.074 9.01871 122.642 8.85615 122.162 8.71479C121.695 8.55929 121.222 8.38966 120.741 8.20589C120.402 8.09281 120.063 7.95852 119.723 7.80302C119.384 7.63339 119.066 7.44255 118.769 7.23052C118.487 7.01848 118.232 6.7711 118.006 6.48838C117.794 6.19153 117.624 5.85227 117.497 5.4706C117.37 5.08893 117.306 4.64365 117.306 4.13475C117.306 3.32901 117.504 2.62221 117.9 2.01437C118.296 1.39239 118.847 0.904698 119.554 0.551301C120.261 0.183767 121.066 0 121.971 0C122.551 0 123.067 0.0565437 123.519 0.169631C123.985 0.268582 124.381 0.402873 124.706 0.572504C125.046 0.727999 125.321 0.890562 125.533 1.06019C125.759 1.21569 125.922 1.34998 126.021 1.46307C126.346 1.78819 126.523 2.06384 126.551 2.29002C126.593 2.50206 126.466 2.79184 126.169 3.15938C125.873 3.54104 125.583 3.75308 125.3 3.79549C125.031 3.82376 124.728 3.71068 124.388 3.45623C124.162 3.21592 123.936 3.02508 123.71 2.88373C123.484 2.72823 123.229 2.61514 122.946 2.54446C122.678 2.47378 122.346 2.43844 121.95 2.43844C121.667 2.43844 121.391 2.48085 121.123 2.56567C120.868 2.63635 120.649 2.74943 120.466 2.90493C120.282 3.04629 120.133 3.22299 120.02 3.43503C119.921 3.64706 119.872 3.88737 119.872 4.15596C119.872 4.52349 119.971 4.82741 120.169 5.06772C120.381 5.2939 120.663 5.48473 121.017 5.64023C121.37 5.78159 121.766 5.91588 122.204 6.0431C122.642 6.17032 123.088 6.30461 123.54 6.44597C124.007 6.60147 124.466 6.78524 124.918 6.99727C125.371 7.20931 125.774 7.47789 126.127 7.80302C126.48 8.11401 126.763 8.50982 126.975 8.99044C127.187 9.45692 127.293 10.0294 127.293 10.7079C127.293 11.4854 127.145 12.1639 126.848 12.7435C126.551 13.3231 126.148 13.7966 125.639 14.1642C125.13 14.5317 124.565 14.8003 123.943 14.9699C123.321 15.1537 122.692 15.2456 122.056 15.2456Z" fill="#212121"/>
<path d="M140.779 0.212038C140.991 0.212038 141.175 0.233242 141.33 0.27565C141.5 0.318058 141.634 0.424078 141.733 0.593708C141.832 0.749204 141.881 1.00365 141.881 1.35705C141.881 1.71045 141.832 1.97196 141.733 2.14159C141.634 2.29709 141.5 2.39604 141.33 2.43844C141.161 2.46672 140.97 2.48085 140.758 2.48085H136.856V13.7825C136.856 14.0228 136.828 14.2419 136.771 14.4398C136.729 14.6236 136.616 14.772 136.432 14.8851C136.262 14.9982 135.973 15.0547 135.563 15.0547C135.181 15.0547 134.898 14.9911 134.715 14.8639C134.531 14.7508 134.418 14.6024 134.375 14.4186C134.333 14.2207 134.312 14.0016 134.312 13.7613V2.48085H130.368C130.17 2.48085 129.986 2.45965 129.816 2.41724C129.647 2.37483 129.505 2.27588 129.392 2.12039C129.293 1.96489 129.244 1.71045 129.244 1.35705C129.244 1.00365 129.293 0.749204 129.392 0.593708C129.491 0.424078 129.626 0.318058 129.795 0.27565C129.979 0.233242 130.17 0.212038 130.368 0.212038H140.779Z" fill="#212121"/>
<path d="M155.266 13.2524C155.407 13.521 155.478 13.7613 155.478 13.9733C155.492 14.1712 155.435 14.3479 155.308 14.5034C155.181 14.6448 154.969 14.7932 154.672 14.9487C154.22 15.1608 153.866 15.2173 153.612 15.1184C153.371 15.0194 153.145 14.7438 152.933 14.2914L148.205 4.30438L143.497 14.2914C143.285 14.7296 143.052 14.9911 142.798 15.0759C142.543 15.1749 142.19 15.1254 141.737 14.9275C141.455 14.7862 141.243 14.6377 141.101 14.4822C140.974 14.3267 140.918 14.143 140.932 13.9309C140.96 13.7048 141.052 13.4362 141.207 13.1252L147.038 0.975378C147.152 0.749204 147.314 0.572505 147.526 0.445282C147.752 0.303923 147.986 0.233243 148.226 0.233243C148.396 0.233243 148.551 0.261515 148.692 0.318058C148.834 0.374601 148.961 0.459417 149.074 0.572504C149.201 0.685592 149.307 0.826951 149.392 0.996581L155.266 13.2524ZM144.43 11.1956L145.448 9.01164H150.982L152 11.1956H144.43Z" fill="#212121"/>
<path d="M159.762 15.0335C159.38 15.0335 159.098 14.9699 158.914 14.8427C158.744 14.7296 158.631 14.5741 158.575 14.3762C158.532 14.1783 158.511 13.9663 158.511 13.7401V1.44186C158.511 1.22982 158.539 1.03192 158.596 0.848155C158.652 0.664388 158.772 0.515961 158.956 0.402873C159.154 0.289787 159.444 0.233243 159.826 0.233243C160.25 0.233243 160.539 0.282719 160.695 0.38167C160.865 0.466485 161.02 0.593708 161.161 0.763339L168.243 10.6655V1.44186C168.243 1.22982 168.272 1.03192 168.328 0.848155C168.385 0.664388 168.505 0.515961 168.689 0.402873C168.873 0.289787 169.155 0.233243 169.537 0.233243C169.933 0.233243 170.215 0.296855 170.385 0.424078C170.569 0.537165 170.682 0.692659 170.724 0.890562C170.781 1.08846 170.809 1.30757 170.809 1.54788V13.7613C170.809 13.9875 170.774 14.1995 170.703 14.3974C170.647 14.5812 170.519 14.7296 170.321 14.8427C170.138 14.9699 169.848 15.0335 169.452 15.0335C169.141 15.0335 168.894 15.0053 168.71 14.9487C168.54 14.8922 168.385 14.772 168.243 14.5883L161.055 4.70726V13.7613C161.055 13.9875 161.027 14.1995 160.971 14.3974C160.928 14.5812 160.815 14.7296 160.631 14.8427C160.448 14.9699 160.158 15.0335 159.762 15.0335Z" fill="#212121"/>
<path d="M185.998 0.212038C186.21 0.212038 186.394 0.233242 186.549 0.27565C186.719 0.318058 186.853 0.424078 186.952 0.593708C187.051 0.749204 187.1 1.00365 187.1 1.35705C187.1 1.71045 187.051 1.97196 186.952 2.14159C186.853 2.29709 186.719 2.39604 186.549 2.43844C186.379 2.46672 186.189 2.48085 185.977 2.48085H182.075V13.7825C182.075 14.0228 182.047 14.2419 181.99 14.4398C181.948 14.6236 181.835 14.772 181.651 14.8851C181.481 14.9982 181.192 15.0547 180.782 15.0547C180.4 15.0547 180.117 14.9911 179.933 14.8639C179.75 14.7508 179.637 14.6024 179.594 14.4186C179.552 14.2207 179.531 14.0016 179.531 13.7613V2.48085H175.587C175.389 2.48085 175.205 2.45965 175.035 2.41724C174.866 2.37483 174.724 2.27588 174.611 2.12039C174.512 1.96489 174.463 1.71045 174.463 1.35705C174.463 1.00365 174.512 0.749204 174.611 0.593708C174.71 0.424078 174.845 0.318058 175.014 0.27565C175.198 0.233242 175.389 0.212038 175.587 0.212038H185.998Z" fill="#212121"/>
<path d="M26.5847 10.9765C25.6123 11.7345 24.3793 12.1208 23.1249 12.0605C22.1399 11.9164 21.2013 11.5644 20.3772 11.0302C20.0652 11.3655 19.7315 11.6819 19.378 11.9772C19.6339 12.1261 19.8963 12.2692 20.1586 12.4061V12.4058C21.24 13.0351 22.4826 13.3669 23.7494 13.3648C25.0257 13.2763 26.2471 12.8355 27.2653 12.0963C27.9709 11.6199 27.2965 10.4943 26.5847 10.9765Z" fill="#11AE88"/>
<path d="M17.3748 8.84108C17.0379 9.19196 16.6627 9.50436 16.2561 9.77235C15.4977 9.206 14.7582 8.63346 14.0187 8.06063C12.2047 6.6509 10.1761 5.09683 7.76796 5.04627L7.76825 5.04656C6.70734 4.98222 5.65979 5.3067 4.82293 5.95905C4.67932 6.08209 4.54615 6.21666 4.42482 6.36162C4.1692 6.66025 3.95646 6.99286 3.79281 7.34963C3.59051 7.81372 3.43392 8.29635 3.32529 8.79078C3.28748 8.9481 3.25589 9.09925 3.22429 9.2501C3.16955 9.5271 3.11482 9.80381 3.06008 10.0808C2.59228 12.4974 2.24468 14.9516 1.83384 17.3805C1.68853 18.2488 0.367499 17.8777 0.512826 17.0155L1.35986 11.9813C1.53056 10.9933 1.65697 9.9738 1.86547 8.97961C1.95407 8.55175 2.06128 8.12393 2.19418 7.72105L2.27628 7.47551H2.276C2.40579 7.09092 2.5731 6.72009 2.7754 6.36812C2.96641 6.03241 3.19298 5.71805 3.45171 5.43039C4.35964 4.42778 5.62005 3.81059 6.97175 3.7063C9.29127 3.47988 11.4463 4.52437 13.2919 5.82701C14.6823 6.80855 16.0095 7.85308 17.3748 8.84108Z" fill="#11AE88"/>
<path d="M1.16211 4.7084C0.533334 4.10358 -0.409826 5.02296 0.193652 5.63996C0.583549 6.03309 0.979655 6.43216 1.37567 6.84959H1.37596C1.54269 6.41542 1.75322 5.99829 2.00473 5.60353L1.16211 4.7084Z" fill="#2A84EE"/>
<path d="M24.3257 1.04229C23.3738 3.47685 22.2755 5.85221 21.0376 8.1556C20.7668 8.62984 20.4701 9.08866 20.1492 9.53066C19.9234 9.83813 19.6815 10.1335 19.4248 10.4158C19.1056 10.7695 18.7602 11.0991 18.3918 11.4015C18.074 11.6392 17.7393 11.8533 17.39 12.042L17.0309 12.2429C15.1599 13.1578 13.0364 13.4249 10.996 13.0025C8.52653 12.4803 6.2345 11.3295 4.34384 9.66237L4.37534 9.50541C4.46168 9.06032 4.57951 8.62199 4.728 8.19342C7.46215 10.5478 10.6558 12.3746 14.3667 11.7219C14.9783 11.6168 15.572 11.4268 16.1305 11.1569C16.5035 10.9794 16.8598 10.7695 17.1953 10.529C17.5856 10.2454 17.9501 9.9281 18.2851 9.58082C18.5491 9.30642 18.7975 9.01717 19.0283 8.71448C19.3349 8.3134 19.617 7.89407 19.8726 7.45882C21.1078 5.15937 22.2037 2.78818 23.1546 0.358142C23.4949 -0.445699 24.6791 0.244909 24.3261 1.04231L24.3257 1.04229Z" fill="#2A84EE"/>
</svg>
